%TF.GenerationSoftware,Altium Limited,Altium Designer,21.4.1 (30)*%
G04 Layer_Physical_Order=1*
G04 Layer_Color=255*
%FSLAX45Y45*%
%MOMM*%
%TF.SameCoordinates,DE4E361F-B2E7-428B-8DBD-4CB4FFEE74F0*%
%TF.FilePolarity,Positive*%
%TF.FileFunction,Copper,L1,Top,Signal*%
%TF.Part,Single*%
G01*
G75*
%TA.AperFunction,Conductor*%
%ADD10C,0.30000*%
%ADD11C,1.00000*%
%ADD12C,0.50000*%
%TA.AperFunction,ComponentPad*%
%ADD13R,1.60000X2.00000*%
%ADD14O,1.60000X2.00000*%
%ADD15R,2.00000X1.60000*%
%ADD16O,2.00000X1.60000*%
%ADD17R,1.70000X1.70000*%
%ADD18C,1.70000*%
%ADD19R,1.70000X1.70000*%
%ADD20C,3.20000*%
%TA.AperFunction,ViaPad*%
%ADD21C,0.60000*%
G36*
X30581601Y13817599D02*
X27025601D01*
Y15062199D01*
X29870401D01*
Y15595599D01*
X26974799D01*
Y16078200D01*
X27597513D01*
X27600916Y16065500D01*
X27595929Y16062621D01*
X27576379Y16043071D01*
X27562555Y16019128D01*
X27555399Y15992422D01*
Y15964777D01*
X27562555Y15938071D01*
X27576379Y15914128D01*
X27595929Y15894579D01*
X27619873Y15880756D01*
X27646576Y15873599D01*
X27674225D01*
X27700928Y15880756D01*
X27724872Y15894579D01*
X27744421Y15914128D01*
X27758243Y15938071D01*
X27765399Y15964777D01*
Y15992422D01*
X27758243Y16019128D01*
X27744421Y16043071D01*
X27724872Y16062621D01*
X27719885Y16065500D01*
X27723288Y16078200D01*
X28613513D01*
X28616916Y16065500D01*
X28611929Y16062621D01*
X28592380Y16043071D01*
X28578555Y16019128D01*
X28571399Y15992422D01*
Y15964777D01*
X28578555Y15938071D01*
X28592380Y15914128D01*
X28611929Y15894579D01*
X28635873Y15880756D01*
X28662576Y15873599D01*
X28690225D01*
X28716928Y15880756D01*
X28740872Y15894579D01*
X28760422Y15914128D01*
X28774243Y15938071D01*
X28781400Y15964777D01*
Y15992422D01*
X28774243Y16019128D01*
X28760422Y16043071D01*
X28740872Y16062621D01*
X28735883Y16065500D01*
X28739288Y16078200D01*
X29629514D01*
X29632916Y16065500D01*
X29627930Y16062621D01*
X29608380Y16043071D01*
X29594556Y16019128D01*
X29587399Y15992422D01*
Y15964777D01*
X29594556Y15938071D01*
X29608380Y15914128D01*
X29627930Y15894579D01*
X29651871Y15880756D01*
X29678577Y15873599D01*
X29706223D01*
X29732928Y15880756D01*
X29756870Y15894579D01*
X29776422Y15914128D01*
X29790244Y15938071D01*
X29797400Y15964777D01*
Y15992422D01*
X29790244Y16019128D01*
X29776422Y16043071D01*
X29756870Y16062621D01*
X29751883Y16065500D01*
X29755286Y16078200D01*
X29819601D01*
Y16535400D01*
X26974799D01*
Y17297400D01*
X28854401D01*
Y17576801D01*
X28549600Y17881599D01*
X26949399D01*
Y18364200D01*
X27597513D01*
X27600916Y18351500D01*
X27595929Y18348621D01*
X27576379Y18329071D01*
X27562555Y18305128D01*
X27555399Y18278423D01*
Y18250777D01*
X27562555Y18224071D01*
X27576379Y18200128D01*
X27595929Y18180579D01*
X27619873Y18166756D01*
X27646576Y18159599D01*
X27674225D01*
X27700928Y18166756D01*
X27724872Y18180579D01*
X27744421Y18200128D01*
X27758243Y18224071D01*
X27765399Y18250777D01*
Y18278423D01*
X27758243Y18305128D01*
X27744421Y18329071D01*
X27724872Y18348621D01*
X27719885Y18351500D01*
X27723288Y18364200D01*
X28613513D01*
X28616916Y18351500D01*
X28611929Y18348621D01*
X28592380Y18329071D01*
X28578555Y18305128D01*
X28571399Y18278423D01*
Y18250777D01*
X28578555Y18224071D01*
X28592380Y18200128D01*
X28611929Y18180579D01*
X28635873Y18166756D01*
X28662576Y18159599D01*
X28690225D01*
X28716928Y18166756D01*
X28740872Y18180579D01*
X28760422Y18200128D01*
X28774243Y18224071D01*
X28781400Y18250777D01*
Y18278423D01*
X28774243Y18305128D01*
X28760422Y18329071D01*
X28740872Y18348621D01*
X28735883Y18351500D01*
X28739288Y18364200D01*
X29629514D01*
X29632916Y18351500D01*
X29627930Y18348621D01*
X29608380Y18329071D01*
X29594556Y18305128D01*
X29587399Y18278423D01*
Y18250777D01*
X29594556Y18224071D01*
X29608380Y18200128D01*
X29627930Y18180579D01*
X29651871Y18166756D01*
X29678577Y18159599D01*
X29706223D01*
X29732928Y18166756D01*
X29756870Y18180579D01*
X29776422Y18200128D01*
X29790244Y18224071D01*
X29797400Y18250777D01*
Y18278423D01*
X29790244Y18305128D01*
X29776422Y18329071D01*
X29756870Y18348621D01*
X29751883Y18351500D01*
X29755286Y18364200D01*
X29819601D01*
Y19253200D01*
X29006799D01*
Y20447000D01*
X30276801D01*
Y22377400D01*
X27482800D01*
Y22809200D01*
X25196800D01*
Y22199600D01*
X25501601D01*
Y21920200D01*
X25196800D01*
Y21539200D01*
X24892000D01*
Y21386800D01*
Y21082565D01*
X24118272Y20308836D01*
X24110538Y20297260D01*
X24107822Y20283604D01*
Y18933981D01*
X23868237Y18694400D01*
X23418800D01*
Y18364200D01*
X22910800D01*
Y18694400D01*
X20370799D01*
Y21666200D01*
X18846800D01*
Y20167599D01*
X14833600D01*
X15646400Y19354800D01*
X18567400D01*
Y19075400D01*
X15570200D01*
X14478000Y20167599D01*
X13614400D01*
Y19050000D01*
X14122400D01*
Y19329401D01*
X14376401D01*
Y19050000D01*
X15443201D01*
Y18110201D01*
X13614400D01*
Y17322800D01*
X18592799D01*
Y15011400D01*
X14173199D01*
X13893800Y15290800D01*
Y16052800D01*
X13639799D01*
Y14630400D01*
X18694400D01*
Y14020799D01*
X13208000D01*
Y23037801D01*
X30581601D01*
Y13817599D01*
D02*
G37*
%LPC*%
G36*
X30167529Y22963800D02*
X30132071D01*
X30097296Y22956883D01*
X30064539Y22943314D01*
X30035056Y22923615D01*
X30009985Y22898543D01*
X29990286Y22869061D01*
X29976718Y22836304D01*
X29969800Y22801527D01*
Y22766072D01*
X29976718Y22731296D01*
X29990286Y22698538D01*
X30009985Y22669057D01*
X30035056Y22643985D01*
X30064539Y22624286D01*
X30097296Y22610716D01*
X30132071Y22603799D01*
X30167529D01*
X30202304Y22610716D01*
X30235062Y22624286D01*
X30264542Y22643985D01*
X30289615Y22669057D01*
X30309314Y22698538D01*
X30322882Y22731296D01*
X30329800Y22766072D01*
Y22801527D01*
X30322882Y22836304D01*
X30309314Y22869061D01*
X30289615Y22898543D01*
X30264542Y22923615D01*
X30235062Y22943314D01*
X30202304Y22956883D01*
X30167529Y22963800D01*
D02*
G37*
G36*
X13657529Y22938400D02*
X13622072D01*
X13587296Y22931483D01*
X13554538Y22917914D01*
X13525056Y22898215D01*
X13499985Y22873143D01*
X13480286Y22843661D01*
X13466718Y22810904D01*
X13459801Y22776128D01*
Y22740672D01*
X13466718Y22705896D01*
X13480286Y22673138D01*
X13499985Y22643657D01*
X13525056Y22618585D01*
X13554538Y22598886D01*
X13587296Y22585316D01*
X13622072Y22578400D01*
X13657529D01*
X13692303Y22585316D01*
X13725063Y22598886D01*
X13754543Y22618585D01*
X13779614Y22643657D01*
X13799313Y22673138D01*
X13812883Y22705896D01*
X13819800Y22740672D01*
Y22776128D01*
X13812883Y22810904D01*
X13799313Y22843661D01*
X13779614Y22873143D01*
X13754543Y22898215D01*
X13725063Y22917914D01*
X13692303Y22931483D01*
X13657529Y22938400D01*
D02*
G37*
G36*
X29117422Y22736400D02*
X29089777D01*
X29063071Y22729243D01*
X29039130Y22715421D01*
X29019580Y22695871D01*
X29005756Y22671928D01*
X28998599Y22645222D01*
Y22617577D01*
X29005756Y22590872D01*
X29019580Y22566930D01*
X29039130Y22547379D01*
X29063071Y22533556D01*
X29089777Y22526401D01*
X29117422D01*
X29144128Y22533556D01*
X29168073Y22547379D01*
X29187622Y22566930D01*
X29201443Y22590872D01*
X29208600Y22617577D01*
Y22645222D01*
X29201443Y22671928D01*
X29187622Y22695871D01*
X29168073Y22715421D01*
X29144128Y22729243D01*
X29117422Y22736400D01*
D02*
G37*
G36*
X28817422D02*
X28789777D01*
X28763071Y22729243D01*
X28739130Y22715421D01*
X28719580Y22695871D01*
X28705756Y22671928D01*
X28698599Y22645222D01*
Y22617577D01*
X28705756Y22590872D01*
X28719580Y22566930D01*
X28739130Y22547379D01*
X28763071Y22533556D01*
X28789777Y22526401D01*
X28817422D01*
X28844128Y22533556D01*
X28868073Y22547379D01*
X28887622Y22566930D01*
X28901443Y22590872D01*
X28908600Y22617577D01*
Y22645222D01*
X28901443Y22671928D01*
X28887622Y22695871D01*
X28868073Y22715421D01*
X28844128Y22729243D01*
X28817422Y22736400D01*
D02*
G37*
G36*
X17975623Y21354800D02*
X17947977D01*
X17921271Y21347644D01*
X17897330Y21333821D01*
X17877779Y21314272D01*
X17863956Y21290329D01*
X17856799Y21263623D01*
Y21235977D01*
X17863956Y21209271D01*
X17877779Y21185329D01*
X17897330Y21165779D01*
X17921271Y21151956D01*
X17947977Y21144800D01*
X17975623D01*
X18002328Y21151956D01*
X18026271Y21165779D01*
X18045821Y21185329D01*
X18059644Y21209271D01*
X18066800Y21235977D01*
Y21263623D01*
X18059644Y21290329D01*
X18045821Y21314272D01*
X18026271Y21333821D01*
X18002328Y21347644D01*
X17975623Y21354800D01*
D02*
G37*
G36*
X16578622D02*
X16550977D01*
X16524271Y21347644D01*
X16500330Y21333821D01*
X16480779Y21314272D01*
X16466956Y21290329D01*
X16459801Y21263623D01*
Y21235977D01*
X16466956Y21209271D01*
X16480779Y21185329D01*
X16500330Y21165779D01*
X16524271Y21151956D01*
X16550977Y21144800D01*
X16578622D01*
X16605328Y21151956D01*
X16629271Y21165779D01*
X16648820Y21185329D01*
X16662643Y21209271D01*
X16669800Y21235977D01*
Y21263623D01*
X16662643Y21290329D01*
X16648820Y21314272D01*
X16629271Y21333821D01*
X16605328Y21347644D01*
X16578622Y21354800D01*
D02*
G37*
G36*
X15181622D02*
X15153976D01*
X15127271Y21347644D01*
X15103329Y21333821D01*
X15083778Y21314272D01*
X15069955Y21290329D01*
X15062801Y21263623D01*
Y21235977D01*
X15069955Y21209271D01*
X15083778Y21185329D01*
X15103329Y21165779D01*
X15127271Y21151956D01*
X15153976Y21144800D01*
X15181622D01*
X15208328Y21151956D01*
X15232271Y21165779D01*
X15251820Y21185329D01*
X15265643Y21209271D01*
X15272800Y21235977D01*
Y21263623D01*
X15265643Y21290329D01*
X15251820Y21314272D01*
X15232271Y21333821D01*
X15208328Y21347644D01*
X15181622Y21354800D01*
D02*
G37*
G36*
X13784624D02*
X13756976D01*
X13730270Y21347644D01*
X13706329Y21333821D01*
X13686778Y21314272D01*
X13672955Y21290329D01*
X13665800Y21263623D01*
Y21235977D01*
X13672955Y21209271D01*
X13686778Y21185329D01*
X13706329Y21165779D01*
X13730270Y21151956D01*
X13756976Y21144800D01*
X13784624D01*
X13811328Y21151956D01*
X13835271Y21165779D01*
X13854820Y21185329D01*
X13868645Y21209271D01*
X13875800Y21235977D01*
Y21263623D01*
X13868645Y21290329D01*
X13854820Y21314272D01*
X13835271Y21333821D01*
X13811328Y21347644D01*
X13784624Y21354800D01*
D02*
G37*
G36*
X30127802Y20323399D02*
X29917801D01*
Y20113400D01*
X30127802D01*
Y20323399D01*
D02*
G37*
G36*
X30036624Y20069400D02*
X30008978D01*
X29982272Y20062244D01*
X29958328Y20048421D01*
X29938779Y20028871D01*
X29924957Y20004929D01*
X29917801Y19978223D01*
Y19950577D01*
X29924957Y19923872D01*
X29938779Y19899928D01*
X29958328Y19880379D01*
X29982272Y19866556D01*
X30008978Y19859399D01*
X30036624D01*
X30063327Y19866556D01*
X30087271Y19880379D01*
X30106821Y19899928D01*
X30120645Y19923872D01*
X30127802Y19950577D01*
Y19978223D01*
X30120645Y20004929D01*
X30106821Y20028871D01*
X30087271Y20048421D01*
X30063327Y20062244D01*
X30036624Y20069400D01*
D02*
G37*
G36*
Y19815401D02*
X30008978D01*
X29982272Y19808244D01*
X29958328Y19794421D01*
X29938779Y19774870D01*
X29924957Y19750928D01*
X29917801Y19724223D01*
Y19696577D01*
X29924957Y19669872D01*
X29938779Y19645929D01*
X29958328Y19626379D01*
X29982272Y19612556D01*
X30008978Y19605400D01*
X30036624D01*
X30063327Y19612556D01*
X30087271Y19626379D01*
X30106821Y19645929D01*
X30120645Y19669872D01*
X30127802Y19696577D01*
Y19724223D01*
X30120645Y19750928D01*
X30106821Y19774870D01*
X30087271Y19794421D01*
X30063327Y19808244D01*
X30036624Y19815401D01*
D02*
G37*
G36*
Y19561400D02*
X30008978D01*
X29982272Y19554243D01*
X29958328Y19540421D01*
X29938779Y19520871D01*
X29924957Y19496928D01*
X29917801Y19470222D01*
Y19442577D01*
X29924957Y19415872D01*
X29938779Y19391930D01*
X29958328Y19372379D01*
X29982272Y19358556D01*
X30008978Y19351401D01*
X30036624D01*
X30063327Y19358556D01*
X30087271Y19372379D01*
X30106821Y19391930D01*
X30120645Y19415872D01*
X30127802Y19442577D01*
Y19470222D01*
X30120645Y19496928D01*
X30106821Y19520871D01*
X30087271Y19540421D01*
X30063327Y19554243D01*
X30036624Y19561400D01*
D02*
G37*
G36*
X17975623Y19322800D02*
X17947977D01*
X17921271Y19315643D01*
X17897330Y19301820D01*
X17877779Y19282271D01*
X17863956Y19258328D01*
X17856799Y19231622D01*
Y19203976D01*
X17863956Y19177272D01*
X17877779Y19153329D01*
X17897330Y19133778D01*
X17921271Y19119955D01*
X17947977Y19112801D01*
X17975623D01*
X18002328Y19119955D01*
X18026271Y19133778D01*
X18045821Y19153329D01*
X18059644Y19177272D01*
X18066800Y19203976D01*
Y19231622D01*
X18059644Y19258328D01*
X18045821Y19282271D01*
X18026271Y19301820D01*
X18002328Y19315643D01*
X17975623Y19322800D01*
D02*
G37*
G36*
X16578622D02*
X16550977D01*
X16524271Y19315643D01*
X16500330Y19301820D01*
X16480779Y19282271D01*
X16466956Y19258328D01*
X16459801Y19231622D01*
Y19203976D01*
X16466956Y19177272D01*
X16480779Y19153329D01*
X16500330Y19133778D01*
X16524271Y19119955D01*
X16550977Y19112801D01*
X16578622D01*
X16605328Y19119955D01*
X16629271Y19133778D01*
X16648820Y19153329D01*
X16662643Y19177272D01*
X16669800Y19203976D01*
Y19231622D01*
X16662643Y19258328D01*
X16648820Y19282271D01*
X16629271Y19301820D01*
X16605328Y19315643D01*
X16578622Y19322800D01*
D02*
G37*
G36*
X30356223Y18819600D02*
X30328577D01*
X30301871Y18812444D01*
X30277930Y18798621D01*
X30258380Y18779071D01*
X30244556Y18755128D01*
X30237399Y18728423D01*
Y18700777D01*
X30244556Y18674071D01*
X30258380Y18650130D01*
X30277930Y18630579D01*
X30301871Y18616756D01*
X30328577Y18609599D01*
X30356223D01*
X30382928Y18616756D01*
X30406870Y18630579D01*
X30426422Y18650130D01*
X30440244Y18674071D01*
X30447400Y18700777D01*
Y18728423D01*
X30440244Y18755128D01*
X30426422Y18779071D01*
X30406870Y18798621D01*
X30382928Y18812444D01*
X30356223Y18819600D01*
D02*
G37*
G36*
Y17676601D02*
X30328577D01*
X30301871Y17669444D01*
X30277930Y17655621D01*
X30258380Y17636070D01*
X30244556Y17612128D01*
X30237399Y17585423D01*
Y17557776D01*
X30244556Y17531071D01*
X30258380Y17507129D01*
X30277930Y17487579D01*
X30301871Y17473756D01*
X30328577Y17466600D01*
X30356223D01*
X30382928Y17473756D01*
X30406870Y17487579D01*
X30426422Y17507129D01*
X30440244Y17531071D01*
X30447400Y17557776D01*
Y17585423D01*
X30440244Y17612128D01*
X30426422Y17636070D01*
X30406870Y17655621D01*
X30382928Y17669444D01*
X30356223Y17676601D01*
D02*
G37*
G36*
X29706223D02*
X29678577D01*
X29651871Y17669444D01*
X29627930Y17655621D01*
X29608380Y17636070D01*
X29594556Y17612128D01*
X29587399Y17585423D01*
Y17557776D01*
X29594556Y17531071D01*
X29608380Y17507129D01*
X29627930Y17487579D01*
X29651871Y17473756D01*
X29678577Y17466600D01*
X29706223D01*
X29732928Y17473756D01*
X29756870Y17487579D01*
X29776422Y17507129D01*
X29790244Y17531071D01*
X29797400Y17557776D01*
Y17585423D01*
X29790244Y17612128D01*
X29776422Y17636070D01*
X29756870Y17655621D01*
X29732928Y17669444D01*
X29706223Y17676601D01*
D02*
G37*
G36*
X29340225D02*
X29312576D01*
X29285873Y17669444D01*
X29261929Y17655621D01*
X29242380Y17636070D01*
X29228555Y17612128D01*
X29221399Y17585423D01*
Y17557776D01*
X29228555Y17531071D01*
X29242380Y17507129D01*
X29261929Y17487579D01*
X29285873Y17473756D01*
X29312576Y17466600D01*
X29340225D01*
X29366928Y17473756D01*
X29390872Y17487579D01*
X29410422Y17507129D01*
X29424243Y17531071D01*
X29431400Y17557776D01*
Y17585423D01*
X29424243Y17612128D01*
X29410422Y17636070D01*
X29390872Y17655621D01*
X29366928Y17669444D01*
X29340225Y17676601D01*
D02*
G37*
G36*
X17975623Y17290800D02*
X17947977D01*
X17921271Y17283644D01*
X17897330Y17269821D01*
X17877779Y17250272D01*
X17863956Y17226329D01*
X17856799Y17199623D01*
Y17171977D01*
X17863956Y17145271D01*
X17877779Y17121329D01*
X17897330Y17101779D01*
X17921271Y17087956D01*
X17947977Y17080800D01*
X17975623D01*
X18002328Y17087956D01*
X18026271Y17101779D01*
X18045821Y17121329D01*
X18059644Y17145271D01*
X18066800Y17171977D01*
Y17199623D01*
X18059644Y17226329D01*
X18045821Y17250272D01*
X18026271Y17269821D01*
X18002328Y17283644D01*
X17975623Y17290800D01*
D02*
G37*
G36*
X16578622D02*
X16550977D01*
X16524271Y17283644D01*
X16500330Y17269821D01*
X16480779Y17250272D01*
X16466956Y17226329D01*
X16459801Y17199623D01*
Y17171977D01*
X16466956Y17145271D01*
X16480779Y17121329D01*
X16500330Y17101779D01*
X16524271Y17087956D01*
X16550977Y17080800D01*
X16578622D01*
X16605328Y17087956D01*
X16629271Y17101779D01*
X16648820Y17121329D01*
X16662643Y17145271D01*
X16669800Y17171977D01*
Y17199623D01*
X16662643Y17226329D01*
X16648820Y17250272D01*
X16629271Y17269821D01*
X16605328Y17283644D01*
X16578622Y17290800D01*
D02*
G37*
G36*
X15181622D02*
X15153976D01*
X15127271Y17283644D01*
X15103329Y17269821D01*
X15083778Y17250272D01*
X15069955Y17226329D01*
X15062801Y17199623D01*
Y17171977D01*
X15069955Y17145271D01*
X15083778Y17121329D01*
X15103329Y17101779D01*
X15127271Y17087956D01*
X15153976Y17080800D01*
X15181622D01*
X15208328Y17087956D01*
X15232271Y17101779D01*
X15251820Y17121329D01*
X15265643Y17145271D01*
X15272800Y17171977D01*
Y17199623D01*
X15265643Y17226329D01*
X15251820Y17250272D01*
X15232271Y17269821D01*
X15208328Y17283644D01*
X15181622Y17290800D01*
D02*
G37*
G36*
X13784624D02*
X13756976D01*
X13730270Y17283644D01*
X13706329Y17269821D01*
X13686778Y17250272D01*
X13672955Y17226329D01*
X13665800Y17199623D01*
Y17171977D01*
X13672955Y17145271D01*
X13686778Y17121329D01*
X13706329Y17101779D01*
X13730270Y17087956D01*
X13756976Y17080800D01*
X13784624D01*
X13811328Y17087956D01*
X13835271Y17101779D01*
X13854820Y17121329D01*
X13868645Y17145271D01*
X13875800Y17171977D01*
Y17199623D01*
X13868645Y17226329D01*
X13854820Y17250272D01*
X13835271Y17269821D01*
X13811328Y17283644D01*
X13784624Y17290800D01*
D02*
G37*
G36*
X29706223Y17226601D02*
X29678577D01*
X29651871Y17219444D01*
X29627930Y17205620D01*
X29608380Y17186070D01*
X29594556Y17162128D01*
X29587399Y17135423D01*
Y17107776D01*
X29594556Y17081071D01*
X29608380Y17057127D01*
X29627930Y17037579D01*
X29651871Y17023756D01*
X29678577Y17016600D01*
X29706223D01*
X29732928Y17023756D01*
X29756870Y17037579D01*
X29776422Y17057127D01*
X29790244Y17081071D01*
X29797400Y17107776D01*
Y17135423D01*
X29790244Y17162128D01*
X29776422Y17186070D01*
X29756870Y17205620D01*
X29732928Y17219444D01*
X29706223Y17226601D01*
D02*
G37*
G36*
X28690225D02*
X28662576D01*
X28635873Y17219444D01*
X28611929Y17205620D01*
X28592380Y17186070D01*
X28578555Y17162128D01*
X28571399Y17135423D01*
Y17107776D01*
X28578555Y17081071D01*
X28592380Y17057127D01*
X28611929Y17037579D01*
X28635873Y17023756D01*
X28662576Y17016600D01*
X28690225D01*
X28716928Y17023756D01*
X28740872Y17037579D01*
X28760422Y17057127D01*
X28774243Y17081071D01*
X28781400Y17107776D01*
Y17135423D01*
X28774243Y17162128D01*
X28760422Y17186070D01*
X28740872Y17205620D01*
X28716928Y17219444D01*
X28690225Y17226601D01*
D02*
G37*
G36*
X27674225D02*
X27646576D01*
X27619873Y17219444D01*
X27595929Y17205620D01*
X27576379Y17186070D01*
X27562555Y17162128D01*
X27555399Y17135423D01*
Y17107776D01*
X27562555Y17081071D01*
X27576379Y17057127D01*
X27595929Y17037579D01*
X27619873Y17023756D01*
X27646576Y17016600D01*
X27674225D01*
X27700928Y17023756D01*
X27724872Y17037579D01*
X27744421Y17057127D01*
X27758243Y17081071D01*
X27765399Y17107776D01*
Y17135423D01*
X27758243Y17162128D01*
X27744421Y17186070D01*
X27724872Y17205620D01*
X27700928Y17219444D01*
X27674225Y17226601D01*
D02*
G37*
G36*
X30356223Y16533600D02*
X30328577D01*
X30301871Y16526443D01*
X30277930Y16512621D01*
X30258380Y16493071D01*
X30244556Y16469128D01*
X30237399Y16442422D01*
Y16414777D01*
X30244556Y16388071D01*
X30258380Y16364130D01*
X30277930Y16344579D01*
X30301871Y16330756D01*
X30328577Y16323599D01*
X30356223D01*
X30382928Y16330756D01*
X30406870Y16344579D01*
X30426422Y16364130D01*
X30440244Y16388071D01*
X30447400Y16414777D01*
Y16442422D01*
X30440244Y16469128D01*
X30426422Y16493071D01*
X30406870Y16512621D01*
X30382928Y16526443D01*
X30356223Y16533600D01*
D02*
G37*
G36*
X17975623Y16040800D02*
X17947977D01*
X17921271Y16033644D01*
X17897330Y16019821D01*
X17877779Y16000272D01*
X17863956Y15976328D01*
X17856799Y15949623D01*
Y15921977D01*
X17863956Y15895271D01*
X17877779Y15871329D01*
X17897330Y15851779D01*
X17921271Y15837956D01*
X17947977Y15830800D01*
X17975623D01*
X18002328Y15837956D01*
X18026271Y15851779D01*
X18045821Y15871329D01*
X18059554Y15895114D01*
X18171774D01*
X18183476Y15883412D01*
X18201854Y15875800D01*
X18221745D01*
X18240123Y15883412D01*
X18254189Y15897478D01*
X18261800Y15915854D01*
Y15935745D01*
X18254189Y15954123D01*
X18240123Y15968188D01*
X18221745Y15975800D01*
X18201854D01*
X18183476Y15968188D01*
X18181775Y15966486D01*
X18062280D01*
X18059644Y15976328D01*
X18045821Y16000272D01*
X18026271Y16019821D01*
X18002328Y16033644D01*
X17975623Y16040800D01*
D02*
G37*
G36*
X16578622D02*
X16550977D01*
X16524271Y16033644D01*
X16500330Y16019821D01*
X16480779Y16000272D01*
X16466956Y15976328D01*
X16459801Y15949623D01*
Y15921977D01*
X16466956Y15895271D01*
X16480779Y15871329D01*
X16500330Y15851779D01*
X16524271Y15837956D01*
X16550977Y15830800D01*
X16578622D01*
X16605328Y15837956D01*
X16629271Y15851779D01*
X16648820Y15871329D01*
X16662643Y15895271D01*
X16663942Y15900114D01*
X16745920D01*
X16747012Y15897478D01*
X16761076Y15883412D01*
X16779454Y15875800D01*
X16799345D01*
X16817723Y15883412D01*
X16831789Y15897478D01*
X16839400Y15915854D01*
Y15935745D01*
X16831789Y15954123D01*
X16817723Y15968188D01*
X16799345Y15975800D01*
X16779454D01*
X16769038Y15971486D01*
X16663942D01*
X16662643Y15976328D01*
X16648820Y16000272D01*
X16629271Y16019821D01*
X16605328Y16033644D01*
X16578622Y16040800D01*
D02*
G37*
G36*
X15181622D02*
X15153976D01*
X15127271Y16033644D01*
X15103329Y16019821D01*
X15083778Y16000272D01*
X15069955Y15976328D01*
X15062801Y15949623D01*
Y15921977D01*
X15069955Y15895271D01*
X15083778Y15871329D01*
X15103329Y15851779D01*
X15127271Y15837956D01*
X15153976Y15830800D01*
X15181622D01*
X15208328Y15837956D01*
X15232271Y15851779D01*
X15251820Y15871329D01*
X15265643Y15895271D01*
X15266942Y15900114D01*
X15323520D01*
X15324612Y15897478D01*
X15338676Y15883412D01*
X15357054Y15875800D01*
X15376945D01*
X15395323Y15883412D01*
X15409389Y15897478D01*
X15417000Y15915854D01*
Y15935745D01*
X15409389Y15954123D01*
X15395323Y15968188D01*
X15376945Y15975800D01*
X15357054D01*
X15346638Y15971486D01*
X15266942D01*
X15265643Y15976328D01*
X15251820Y16000272D01*
X15232271Y16019821D01*
X15208328Y16033644D01*
X15181622Y16040800D01*
D02*
G37*
G36*
X18475623D02*
X18447977D01*
X18421272Y16033644D01*
X18397330Y16019821D01*
X18377779Y16000272D01*
X18363956Y15976328D01*
X18356799Y15949623D01*
Y15921977D01*
X18363956Y15895271D01*
X18377779Y15871329D01*
X18397330Y15851779D01*
X18421272Y15837956D01*
X18447977Y15830800D01*
X18475623D01*
X18502328Y15837956D01*
X18526271Y15851779D01*
X18545821Y15871329D01*
X18559644Y15895271D01*
X18566800Y15921977D01*
Y15949623D01*
X18559644Y15976328D01*
X18545821Y16000272D01*
X18526271Y16019821D01*
X18502328Y16033644D01*
X18475623Y16040800D01*
D02*
G37*
G36*
X17078622D02*
X17050977D01*
X17024272Y16033644D01*
X17000330Y16019821D01*
X16980779Y16000272D01*
X16966956Y15976328D01*
X16959801Y15949623D01*
Y15921977D01*
X16966956Y15895271D01*
X16980779Y15871329D01*
X17000330Y15851779D01*
X17024272Y15837956D01*
X17050977Y15830800D01*
X17078622D01*
X17105328Y15837956D01*
X17129271Y15851779D01*
X17148820Y15871329D01*
X17162643Y15895271D01*
X17169800Y15921977D01*
Y15949623D01*
X17162643Y15976328D01*
X17148820Y16000272D01*
X17129271Y16019821D01*
X17105328Y16033644D01*
X17078622Y16040800D01*
D02*
G37*
G36*
X15681622D02*
X15653976D01*
X15627272Y16033644D01*
X15603329Y16019821D01*
X15583778Y16000272D01*
X15569955Y15976328D01*
X15562801Y15949623D01*
Y15921977D01*
X15569955Y15895271D01*
X15583778Y15871329D01*
X15603329Y15851779D01*
X15627272Y15837956D01*
X15653976Y15830800D01*
X15681622D01*
X15708328Y15837956D01*
X15732271Y15851779D01*
X15751820Y15871329D01*
X15765643Y15895271D01*
X15772800Y15921977D01*
Y15949623D01*
X15765643Y15976328D01*
X15751820Y16000272D01*
X15732271Y16019821D01*
X15708328Y16033644D01*
X15681622Y16040800D01*
D02*
G37*
G36*
X14284624D02*
X14256976D01*
X14230272Y16033644D01*
X14206329Y16019821D01*
X14186778Y16000272D01*
X14172955Y15976328D01*
X14165800Y15949623D01*
Y15921977D01*
X14172955Y15895271D01*
X14186778Y15871329D01*
X14206329Y15851779D01*
X14230272Y15837956D01*
X14256976Y15830800D01*
X14284624D01*
X14311330Y15837956D01*
X14335271Y15851779D01*
X14354820Y15871329D01*
X14368645Y15895271D01*
X14375800Y15921977D01*
Y15949623D01*
X14368645Y15976328D01*
X14354820Y16000272D01*
X14335271Y16019821D01*
X14311330Y16033644D01*
X14284624Y16040800D01*
D02*
G37*
G36*
X17975623Y15258800D02*
X17947977D01*
X17921271Y15251643D01*
X17897330Y15237820D01*
X17877779Y15218271D01*
X17863956Y15194328D01*
X17856799Y15167622D01*
Y15139977D01*
X17863956Y15113272D01*
X17877779Y15089330D01*
X17897330Y15069778D01*
X17921271Y15055956D01*
X17947977Y15048801D01*
X17975623D01*
X18002328Y15055956D01*
X18026271Y15069778D01*
X18045821Y15089330D01*
X18059644Y15113272D01*
X18066800Y15139977D01*
Y15167622D01*
X18059644Y15194328D01*
X18045821Y15218271D01*
X18026271Y15237820D01*
X18002328Y15251643D01*
X17975623Y15258800D01*
D02*
G37*
G36*
X16578622D02*
X16550977D01*
X16524271Y15251643D01*
X16500330Y15237820D01*
X16480779Y15218271D01*
X16466956Y15194328D01*
X16459801Y15167622D01*
Y15139977D01*
X16466956Y15113272D01*
X16480779Y15089330D01*
X16500330Y15069778D01*
X16524271Y15055956D01*
X16550977Y15048801D01*
X16578622D01*
X16605328Y15055956D01*
X16629271Y15069778D01*
X16648820Y15089330D01*
X16662643Y15113272D01*
X16669800Y15139977D01*
Y15167622D01*
X16662643Y15194328D01*
X16648820Y15218271D01*
X16629271Y15237820D01*
X16605328Y15251643D01*
X16578622Y15258800D01*
D02*
G37*
G36*
X15181622D02*
X15153976D01*
X15127271Y15251643D01*
X15103329Y15237820D01*
X15083778Y15218271D01*
X15069955Y15194328D01*
X15062801Y15167622D01*
Y15139977D01*
X15069955Y15113272D01*
X15083778Y15089330D01*
X15103329Y15069778D01*
X15127271Y15055956D01*
X15153976Y15048801D01*
X15181622D01*
X15208328Y15055956D01*
X15232271Y15069778D01*
X15251820Y15089330D01*
X15265643Y15113272D01*
X15272800Y15139977D01*
Y15167622D01*
X15265643Y15194328D01*
X15251820Y15218271D01*
X15232271Y15237820D01*
X15208328Y15251643D01*
X15181622Y15258800D01*
D02*
G37*
G36*
X29626224Y14059599D02*
X29598578D01*
X29571872Y14052444D01*
X29547928Y14038622D01*
X29528378Y14019070D01*
X29514557Y13995128D01*
X29507401Y13968423D01*
Y13940778D01*
X29514557Y13914072D01*
X29528378Y13890129D01*
X29547928Y13870580D01*
X29571872Y13856757D01*
X29598578Y13849600D01*
X29626224D01*
X29652930Y13856757D01*
X29676871Y13870580D01*
X29696420Y13890129D01*
X29710245Y13914072D01*
X29717401Y13940778D01*
Y13968423D01*
X29710245Y13995128D01*
X29696420Y14019070D01*
X29676871Y14038622D01*
X29652930Y14052444D01*
X29626224Y14059599D01*
D02*
G37*
G36*
X27899023D02*
X27871378D01*
X27844672Y14052444D01*
X27820728Y14038622D01*
X27801178Y14019070D01*
X27787357Y13995128D01*
X27780200Y13968423D01*
Y13940778D01*
X27787357Y13914072D01*
X27801178Y13890129D01*
X27820728Y13870580D01*
X27844672Y13856757D01*
X27871378Y13849600D01*
X27899023D01*
X27925729Y13856757D01*
X27949670Y13870580D01*
X27969220Y13890129D01*
X27983044Y13914072D01*
X27990201Y13940778D01*
Y13968423D01*
X27983044Y13995128D01*
X27969220Y14019070D01*
X27949670Y14038622D01*
X27925729Y14052444D01*
X27899023Y14059599D01*
D02*
G37*
%LPD*%
D10*
X25144000Y18745200D02*
X25552400Y18336800D01*
X21539200Y16154401D02*
X21717000Y15976601D01*
Y13914366D02*
Y15976601D01*
Y13914366D02*
X21852567Y13778799D01*
X23622000Y13708174D02*
Y13989999D01*
X23464200Y14147800D02*
X23622000Y13989999D01*
X21818600Y13690601D02*
X23604427D01*
X23622000Y13708174D01*
X21659277Y13849924D02*
X21818600Y13690601D01*
X21876566Y14008800D02*
X22898801D01*
X23164799Y14274800D01*
Y16434077D01*
X21940199Y14147800D02*
X22783800Y14991400D01*
X21940199Y14401801D02*
X22707600Y15169200D01*
X21940199Y14655800D02*
X22631400Y15347000D01*
X21940199Y14909801D02*
X22555200Y15524800D01*
X21940199Y15163800D02*
X22478999Y15702600D01*
Y17780000D01*
X22555200Y15524800D02*
Y17957800D01*
X22707600Y15169200D02*
Y18313400D01*
X22631400Y15347000D02*
Y18135600D01*
X22783800Y14991400D02*
Y18491200D01*
X18948399Y18844800D02*
X19175000Y18618201D01*
X18511147Y19487254D02*
X18948399Y19050000D01*
Y18844800D02*
Y19050000D01*
X26822400Y17322800D02*
Y18397426D01*
X26839975Y18414999D01*
X29392801D01*
X26416000Y17246600D02*
Y18389600D01*
X26593799Y18567400D01*
X27513199D01*
X19050000Y19202400D02*
X19149600D01*
X19175000Y19177000D01*
Y18618201D02*
X19312000Y18481200D01*
X15680345Y19487254D02*
X18511147D01*
X17043401Y19761200D02*
X18346848D01*
X19175000Y18933047D01*
Y18897600D02*
Y18933047D01*
X16564799Y19999800D02*
X16804800D01*
X17043401Y19761200D01*
X17961800Y19999800D02*
X18252600D01*
X18262537Y19989864D02*
X18262537D01*
X19050000Y19202400D01*
X18252600Y19999800D02*
X18262537Y19989864D01*
X15214600Y19380200D02*
X16256000Y18338800D01*
X13770799Y19999800D02*
X14390401Y19380200D01*
X15214600D01*
X16256000Y18338800D02*
X19175000D01*
X19312000Y17427600D02*
Y18481200D01*
Y17427600D02*
X19315199Y17424400D01*
X19177000Y16560800D02*
X19202400D01*
X19380200Y17252000D02*
Y17907001D01*
X19197000Y17068800D02*
X19380200Y17252000D01*
X19177000Y17068800D02*
X19197000D01*
X19175000Y18897600D02*
X19456400Y18616200D01*
Y17068800D02*
Y18616200D01*
X19202400Y16814799D02*
X19456400Y17068800D01*
X21386800Y17017999D02*
Y17432227D01*
X21056599Y17449800D02*
X21369226D01*
X21386800Y17432227D01*
X20980400Y16916400D02*
Y17551401D01*
Y16916400D02*
X21259801Y16637000D01*
X20969200Y17641800D02*
X21957698D01*
X20743988Y17416588D02*
X20969200Y17641800D01*
X20700999Y17322800D02*
X20743988Y17365788D01*
Y17416588D01*
X24917400Y20474400D02*
X25144000Y20700999D01*
X24917400Y16794800D02*
Y20474400D01*
X24683400Y16560800D02*
X24917400Y16794800D01*
X24663400Y16560800D02*
X24683400D01*
X25019000D02*
Y20296600D01*
X24683400Y16306799D02*
X24700987Y16324388D01*
X24782588D02*
X25019000Y16560800D01*
X24700987Y16324388D02*
X24782588D01*
X24663400Y16306799D02*
X24683400D01*
X26187399Y17068800D02*
X26207401D01*
X26644400Y16631799D01*
Y16428600D02*
Y16631799D01*
X26390601Y20955000D02*
X26644601Y20700999D01*
X26390601Y20955000D02*
Y21285201D01*
X26898599Y20955000D02*
Y21285201D01*
Y20955000D02*
X27152600Y20700999D01*
X26644601Y20955000D02*
Y21285201D01*
Y20955000D02*
X26898599Y20700999D01*
X25679401Y22606000D02*
Y22631400D01*
X26111725Y22072073D02*
X26136600Y22047200D01*
X26111725Y22072073D02*
Y22173674D01*
X25679401Y22606000D02*
X26111725Y22173674D01*
X25933401Y22606000D02*
Y22631400D01*
X26365726Y22072073D02*
X26390601Y22047200D01*
X26365726Y22072073D02*
Y22173674D01*
X25933401Y22606000D02*
X26365726Y22173674D01*
X25857727Y22072073D02*
Y22199074D01*
X25425400Y22631400D02*
X25857727Y22199074D01*
Y22072073D02*
X25882599Y22047200D01*
X27076401Y22167776D02*
Y22631400D01*
X27152600Y22047200D02*
Y22091576D01*
X27076401Y22167776D02*
X27152600Y22091576D01*
X26898599Y22047200D02*
Y22091576D01*
X26822400Y22167776D02*
Y22631400D01*
Y22167776D02*
X26898599Y22091576D01*
X26568399Y22167776D02*
X26644601Y22091576D01*
Y22047200D02*
Y22091576D01*
X26568399Y22167776D02*
Y22631400D01*
X25280103Y21420200D02*
X26021600D01*
X26136600Y21285201D02*
Y21305200D01*
X26021600Y21420200D02*
X26136600Y21305200D01*
X24143506Y20283604D02*
X25280103Y21420200D01*
X24143506Y18919202D02*
Y20283604D01*
X23309200Y18084894D02*
X24143506Y18919202D01*
X23309200Y14196091D02*
Y18084894D01*
X23006911Y13893800D02*
X23309200Y14196091D01*
X21920200Y13893800D02*
X23006911D01*
X19532600Y16439200D02*
Y19098801D01*
Y16439200D02*
X20681000Y15290800D01*
X19175000Y19456400D02*
X19532600Y19098801D01*
X19608800Y16617000D02*
Y19302000D01*
X19175000Y19735800D02*
X19608800Y19302000D01*
Y16617000D02*
X20681000Y15544800D01*
X19685001Y16794800D02*
X20681000Y15798801D01*
X19685001Y16794800D02*
Y19505200D01*
X19175000Y20015199D02*
X19685001Y19505200D01*
X19175000Y20294600D02*
X19761200Y19708400D01*
Y16972600D02*
X20681000Y16052800D01*
X19761200Y16972600D02*
Y19708400D01*
X19837399Y17150400D02*
X20681000Y16306799D01*
X19837399Y17150400D02*
Y19911600D01*
X19175000Y20574001D02*
X19837399Y19911600D01*
X19913600Y17328200D02*
Y20114799D01*
X19175000Y20853400D02*
X19913600Y20114799D01*
Y17328200D02*
X20681000Y16560800D01*
X19989799Y17506000D02*
Y20317999D01*
Y17506000D02*
X20681000Y16814799D01*
X19175000Y21132800D02*
X19989799Y20317999D01*
X20066000Y17683800D02*
Y20521201D01*
X19175000Y21412199D02*
X20066000Y20521201D01*
Y17683800D02*
X20681000Y17068800D01*
X19177000Y16814799D02*
X19202400D01*
X20681000Y16306799D02*
X20721001D01*
X20681000Y15798801D02*
X20700999D01*
X20681000Y16814799D02*
X20721001D01*
X20681000Y16560800D02*
X20721001D01*
X20681000Y17068800D02*
X20721001D01*
X20681000Y16052800D02*
X20721001D01*
X20681000Y15544800D02*
X20721001D01*
X19042000Y18205800D02*
X19175000Y18338800D01*
X19042000Y16421800D02*
Y18205800D01*
Y16421800D02*
X19157001Y16306799D01*
X19177000D01*
X15167799Y19999800D02*
X15680345Y19487254D01*
X20681000Y15290800D02*
X20721001D01*
X20873399Y17729201D02*
X21996400D01*
X22174200Y16159801D02*
Y17551401D01*
X21996400Y17729201D02*
X22174200Y17551401D01*
X20721001Y17576801D02*
X20873399Y17729201D01*
X22098000Y16337601D02*
Y17501497D01*
X21957698Y17641800D02*
X22098000Y17501497D01*
X21940199Y16179800D02*
X22098000Y16337601D01*
X21940199Y15925800D02*
X22174200Y16159801D01*
X21767799Y18491200D02*
X22478999Y17780000D01*
X22021800Y18491200D02*
X22555200Y17957800D01*
X22275800Y18491200D02*
X22631400Y18135600D01*
X22529800Y18491200D02*
X22707600Y18313400D01*
X24104601Y14216174D02*
Y15514000D01*
X24206200Y14292374D02*
Y15361600D01*
Y14292374D02*
X24223775Y14274800D01*
X24307800Y14393974D02*
X24325374Y14376401D01*
X24307800Y14393974D02*
Y15209200D01*
X24104601Y15514000D02*
X24643401Y16052800D01*
X24206200Y15361600D02*
X24643401Y15798801D01*
X24307800Y15209200D02*
X24643401Y15544800D01*
X24147574Y14173199D02*
X26568399D01*
X24104601Y14216174D02*
X24147574Y14173199D01*
X24325374Y14376401D02*
X26416000D01*
X24223775Y14274800D02*
X26492200D01*
X23702538Y16819138D02*
X23825200Y16941800D01*
X23702538Y16164137D02*
Y16819138D01*
X23600932Y16570532D02*
Y17355531D01*
X23695200Y17449800D01*
X21539200Y15900400D02*
Y15925800D01*
X21659277Y13849924D02*
Y15780322D01*
X21539200Y15900400D02*
X21659277Y15780322D01*
X23589200Y14655800D02*
X23825200Y14891800D01*
Y15671800D01*
X23652538Y17023138D02*
X23825200Y17195799D01*
X21539200Y16941800D02*
X21920200D01*
X21539200Y16433800D02*
X21785201Y16187801D01*
Y14100166D02*
Y16187801D01*
Y14100166D02*
X21876566Y14008800D01*
X21539200Y17449800D02*
X21920200D01*
X21539200Y17195799D02*
X21920200D01*
X21539200Y16687801D02*
X21920200D01*
Y14401801D02*
X21940199D01*
X23444200Y15925800D02*
X23464200D01*
X23702538Y16164137D01*
X21920200Y14909801D02*
X21940199D01*
X23444200Y14147800D02*
X23464200D01*
X23444200Y16433800D02*
X23464200D01*
X23600932Y16570532D01*
X21920200Y14147800D02*
X21940199D01*
X23444200Y16179800D02*
X23464200D01*
X23652538Y16368138D01*
Y17023138D01*
X21920200Y16179800D02*
X21940199D01*
X21920200Y14655800D02*
X21940199D01*
X21920200Y15163800D02*
X21940199D01*
X21920200Y15925800D02*
X21940199D01*
X23424200Y13893800D02*
X23444200D01*
X23309200Y13778799D02*
X23424200Y13893800D01*
X21852567Y13778799D02*
X23309200D01*
X23444200Y14655800D02*
X23589200D01*
X20700999Y17576801D02*
X20721001D01*
X21539200Y16154401D02*
Y16179800D01*
X23695200Y17449800D02*
X23825200D01*
X24643401Y15290800D02*
X24663400D01*
X24409399Y15056799D02*
X24643401Y15290800D01*
X24409399Y14495573D02*
X24426974Y14478000D01*
X26339801D01*
X24409399Y14495573D02*
Y15056799D01*
X18981625Y14937537D02*
X18999200Y14919963D01*
Y14546375D02*
Y14919963D01*
X14196263Y14937537D02*
X18981625D01*
X13770799Y15363000D02*
X14196263Y14937537D01*
X13770799Y15363000D02*
Y15935800D01*
X18905426Y14859000D02*
X18923000Y14841426D01*
X15367000Y14859000D02*
X18905426D01*
X18923000Y14470174D02*
Y14841426D01*
X18846800Y14393974D02*
Y14765227D01*
X18829227Y14782800D02*
X18846800Y14765227D01*
X16789400Y14782800D02*
X18829227D01*
X18753026Y14706599D02*
X18770599Y14689026D01*
Y14325600D02*
Y14689026D01*
X18211800Y14706599D02*
X18753026D01*
X25120599Y17653000D02*
Y18008600D01*
X21386800Y13873891D02*
Y16403000D01*
X20721001Y17068800D02*
X21386800Y16403000D01*
X29392801Y18414999D02*
X29692401Y18714600D01*
X29392801Y16128999D02*
X29692401Y16428600D01*
X26207401Y16306799D02*
X26385199Y16128999D01*
X29392801D01*
X28453000Y16205200D02*
X28676401Y16428600D01*
X26542999Y16205200D02*
X28453000D01*
X26187399Y16560800D02*
X26542999Y16205200D01*
X26492200Y18364200D02*
X26619199Y18491200D01*
X28453000D01*
X26492200Y17322800D02*
Y18364200D01*
X24643401Y16052800D02*
X24663400D01*
X24643401Y15798801D02*
X24663400D01*
X28453000Y18491200D02*
X28676401Y18714600D01*
X27513199Y18567400D02*
X27660400Y18714600D01*
X24643401Y15544800D02*
X24663400D01*
X26339801Y17170399D02*
Y18410001D01*
X26644400Y18714600D01*
X25476199Y18059399D02*
Y18135600D01*
Y16236000D02*
Y18059399D01*
X26555975Y16293826D02*
X27525626D01*
X27660400Y16428600D01*
X27660400D01*
X26517599Y16332201D02*
X26555975Y16293826D01*
X26207401Y16814799D02*
X26517599Y16504601D01*
Y16332201D02*
Y16504601D01*
X26187399Y16814799D02*
X26207401D01*
X26167401Y16560800D02*
X26187399D01*
X26167401Y16306799D02*
X26207401D01*
X26771600Y15169374D02*
Y15468600D01*
X26097800Y15151801D02*
X26754025D01*
X26771600Y15169374D01*
X24683400Y16306799D02*
X26309000Y14681200D01*
X26881027D01*
X24917400Y16332201D02*
X26097800Y15151801D01*
X26822400Y15519400D02*
X29297601D01*
X26771600Y15468600D02*
X26822400Y15519400D01*
X29297601D02*
X29612399Y15204601D01*
X26881027Y14681200D02*
X26898599Y14698775D01*
Y15367000D01*
X26923999Y15392400D01*
X27697400D01*
X27885199Y15204601D01*
X25400000Y16058200D02*
X26167401Y15290800D01*
X26187399D01*
X25400000Y16058200D02*
Y17983200D01*
X18694400Y15753400D02*
Y17483026D01*
X14238000Y17500600D02*
X18676826D01*
X18694400Y17483026D01*
X25144000Y20142200D02*
X25933401Y19352800D01*
Y17302800D02*
X26167401Y17068800D01*
X25933401Y17302800D02*
Y19352800D01*
X25857199Y17125000D02*
X26167401Y16814799D01*
X25144000Y19862801D02*
X25857199Y19149600D01*
Y17125000D02*
Y19149600D01*
X25781000Y16947200D02*
Y18946400D01*
Y16947200D02*
X26167401Y16560800D01*
X25144000Y19583400D02*
X25781000Y18946400D01*
X25704800Y16769400D02*
Y18770599D01*
X25171400Y19303999D02*
X25704800Y18770599D01*
Y16769400D02*
X26167401Y16306799D01*
X25628601Y16591600D02*
X26167401Y16052800D01*
X25628601Y16591600D02*
Y18539999D01*
X25144000Y19024600D02*
X25628601Y18539999D01*
X25552400Y16413800D02*
X26167401Y15798801D01*
X25552400Y16413800D02*
Y18336800D01*
X25476199Y16236000D02*
X26167401Y15544800D01*
X25146001Y18465800D02*
X25476199Y18135600D01*
X25223589Y18159612D02*
X25400000Y17983200D01*
X25170789Y18159612D02*
X25223589D01*
X25144000Y18186400D02*
X25170789Y18159612D01*
X26167401Y15544800D02*
X26187399D01*
X25144000Y18465800D02*
X25146001D01*
X26167401Y15798801D02*
X26187399D01*
X26167401Y16052800D02*
X26187399D01*
X25144000Y19303999D02*
X25171400D01*
X26167401Y16814799D02*
X26187399D01*
X26167401Y17068800D02*
X26187399D01*
X25019000Y20296600D02*
X25144000Y20421600D01*
X18923000Y16286800D02*
Y17711626D01*
X18200400Y17729201D02*
X18905426D01*
X18923000Y17711626D01*
Y16286800D02*
X19157001Y16052800D01*
X18829227Y17653000D02*
X18846800Y17635426D01*
Y16109000D02*
X19157001Y15798801D01*
X16879601Y17653000D02*
X18829227D01*
X18846800Y16109000D02*
Y17635426D01*
X18753026Y17576801D02*
X18770599Y17559225D01*
Y15931200D02*
X19157001Y15544800D01*
X18770599Y15931200D02*
Y17559225D01*
X15595599Y17576801D02*
X18753026D01*
X18694400Y15753400D02*
X19157001Y15290800D01*
X18796001Y14300200D02*
X20929601D01*
X18770599Y14325600D02*
X18796001Y14300200D01*
X19157001Y15544800D02*
X19177000D01*
X19157001Y15798801D02*
X19177000D01*
X19016774Y14528799D02*
X20777200D01*
X19157001Y16052800D02*
X19177000D01*
X19157001Y15290800D02*
X19177000D01*
X18999200Y14546375D02*
X19016774Y14528799D01*
X20853400Y14605000D02*
Y15158400D01*
X20777200Y14528799D02*
X20853400Y14605000D01*
X20721001Y15290800D02*
X20853400Y15158400D01*
X20721001Y15544800D02*
X20929601Y15336200D01*
X21157401Y13937790D02*
Y15870399D01*
X21234399Y13919200D02*
Y16047400D01*
X21310600Y13893800D02*
Y16225200D01*
X20721001Y16306799D02*
X21157401Y15870399D01*
X20700999Y15798801D02*
X21005800Y15494000D01*
X20721001Y16052800D02*
X21082001Y15691800D01*
X20929601Y14300200D02*
X21082001Y14452600D01*
X20929601Y14579601D02*
X20929874Y14579326D01*
X20878799Y14376401D02*
X21005800Y14503400D01*
X20828000Y14452600D02*
X20929874Y14554474D01*
Y14579326D01*
X20757809Y13538200D02*
X21157401Y13937790D01*
X20777200Y13462000D02*
X21234399Y13919200D01*
X21082001Y14452600D02*
Y15691800D01*
X21005800Y14503400D02*
Y15494000D01*
X20929601Y14579601D02*
Y15336200D01*
X20721001Y16560800D02*
X21234399Y16047400D01*
X20721001Y16814799D02*
X21310600Y16225200D01*
X17961800Y17967799D02*
X18200400Y17729201D01*
X17006599Y13462000D02*
X20777200D01*
X16564799Y13903799D02*
X17006599Y13462000D01*
X15167799Y17967799D02*
X15204601D01*
X15595599Y17576801D01*
X13770799Y17967799D02*
X14238000Y17500600D01*
X16564799Y17967799D02*
X16879601Y17653000D01*
X15685800Y13385800D02*
X20802600D01*
X15167799Y13903799D02*
X15685800Y13385800D01*
X14325600Y13309599D02*
X20822510D01*
X14224001Y13411200D02*
X14325600Y13309599D01*
X14224001Y13411200D02*
Y13411200D01*
X13813023Y13822176D02*
X14224001Y13411200D01*
X13813023Y13822176D02*
Y13823692D01*
X13770799Y13865916D02*
X13813023Y13823692D01*
X13770799Y13865916D02*
Y13903799D01*
X18327400Y13538200D02*
X20757809D01*
X17961800Y13903799D02*
X18327400Y13538200D01*
X20802600Y13385800D02*
X21310600Y13893800D01*
X20822510Y13309599D02*
X21386800Y13873891D01*
X18846800Y14393974D02*
X18864374Y14376401D01*
X20878799D01*
X18923000Y14470174D02*
X18940575Y14452600D01*
X20828000D01*
X16564799Y15935800D02*
X16771281D01*
X16781282Y15925800D01*
X16789400D01*
X18206799Y15930800D02*
X18211800Y15925800D01*
X17961800Y15935800D02*
X17966800Y15930800D01*
X18206799D01*
X15167799Y15935800D02*
X15348882D01*
X15358882Y15925800D02*
X15367000D01*
X15348882Y15935800D02*
X15358882Y15925800D01*
D11*
X18461800Y15153799D02*
X19039999D01*
X19157001Y15036800D01*
X19177000D01*
D12*
X27813000Y19634200D02*
X27873001Y19694200D01*
X27923801D01*
X30064401Y21834801D02*
Y22041000D01*
X27923801Y19694200D02*
X30064401Y21834801D01*
X28067001Y20066000D02*
Y21588400D01*
X27824399Y21831000D02*
X28067001Y21588400D01*
X29133801Y20700999D02*
X30124399D01*
X28067001Y19634200D02*
X29133801Y20700999D01*
X30124399D02*
X30124399Y20700999D01*
X30064401Y22041000D02*
X30124399Y22100999D01*
X27694400Y20184599D02*
X27813000Y20066000D01*
X27694400Y20841000D02*
X27824399Y20971001D01*
X27694400Y20184599D02*
Y20841000D01*
D13*
X25374600Y21285201D02*
D03*
D14*
X25628601D02*
D03*
X25882599D02*
D03*
X26136600D02*
D03*
X26390601D02*
D03*
X26644601D02*
D03*
X26898599D02*
D03*
X27152600D02*
D03*
X25374600Y22047200D02*
D03*
X25628601D02*
D03*
X25882599D02*
D03*
X26136600D02*
D03*
X26390601D02*
D03*
X26644601D02*
D03*
X26898599D02*
D03*
X27152600D02*
D03*
D15*
X21920200Y17449800D02*
D03*
X26187399Y15036800D02*
D03*
X20700999D02*
D03*
D16*
X21920200Y17195799D02*
D03*
Y16941800D02*
D03*
Y16687801D02*
D03*
Y16433800D02*
D03*
Y16179800D02*
D03*
Y15925800D02*
D03*
Y15671800D02*
D03*
Y15417799D02*
D03*
Y15163800D02*
D03*
Y14909801D02*
D03*
Y14655800D02*
D03*
Y14401801D02*
D03*
Y14147800D02*
D03*
Y13893800D02*
D03*
X23444200Y17449800D02*
D03*
Y17195799D02*
D03*
Y16941800D02*
D03*
Y16687801D02*
D03*
Y16433800D02*
D03*
Y16179800D02*
D03*
Y15925800D02*
D03*
Y15671800D02*
D03*
Y15417799D02*
D03*
Y15163800D02*
D03*
Y14909801D02*
D03*
Y14655800D02*
D03*
Y14401801D02*
D03*
Y14147800D02*
D03*
Y13893800D02*
D03*
X26187399Y15290800D02*
D03*
Y15544800D02*
D03*
Y15798801D02*
D03*
Y16052800D02*
D03*
Y16306799D02*
D03*
Y16560800D02*
D03*
Y16814799D02*
D03*
Y17068800D02*
D03*
Y17322800D02*
D03*
Y17576801D02*
D03*
Y17830800D02*
D03*
X24663400Y15036800D02*
D03*
Y15290800D02*
D03*
Y15544800D02*
D03*
Y15798801D02*
D03*
Y16052800D02*
D03*
Y16306799D02*
D03*
Y16560800D02*
D03*
Y16814799D02*
D03*
Y17068800D02*
D03*
Y17322800D02*
D03*
Y17576801D02*
D03*
Y17830800D02*
D03*
X19177000D02*
D03*
Y17576801D02*
D03*
Y17322800D02*
D03*
Y17068800D02*
D03*
Y16814799D02*
D03*
Y16560800D02*
D03*
Y16306799D02*
D03*
Y16052800D02*
D03*
Y15798801D02*
D03*
Y15544800D02*
D03*
Y15290800D02*
D03*
Y15036800D02*
D03*
X20700999Y17830800D02*
D03*
Y17576801D02*
D03*
Y17322800D02*
D03*
Y17068800D02*
D03*
Y16814799D02*
D03*
Y16560800D02*
D03*
Y16306799D02*
D03*
Y16052800D02*
D03*
Y15798801D02*
D03*
Y15544800D02*
D03*
Y15290800D02*
D03*
D17*
X25425400Y22631400D02*
D03*
X26644601Y20700999D02*
D03*
X26568399Y22631400D02*
D03*
X27813000Y19634200D02*
D03*
X21767799Y18491200D02*
D03*
X17064799Y17185800D02*
D03*
X14270799Y15153799D02*
D03*
X15667799D02*
D03*
X17064799D02*
D03*
X18461800D02*
D03*
X14270799Y17185800D02*
D03*
X15667799D02*
D03*
X18461800D02*
D03*
X14270799Y19217799D02*
D03*
X15667799D02*
D03*
X17064799D02*
D03*
X18461800D02*
D03*
X14270799Y21249800D02*
D03*
X15667799D02*
D03*
X17064799D02*
D03*
X18461800D02*
D03*
X27385199Y13954601D02*
D03*
X29112399D02*
D03*
X27294400Y15978600D02*
D03*
X28310400D02*
D03*
X29326401D02*
D03*
X30342401D02*
D03*
X27294400Y17121600D02*
D03*
X28310400D02*
D03*
X29326401D02*
D03*
X30342401D02*
D03*
X27294400Y18264600D02*
D03*
X28310400D02*
D03*
X29326401D02*
D03*
X30342401D02*
D03*
X28503601Y22631400D02*
D03*
X27813000Y20066000D02*
D03*
D18*
X25679401Y22631400D02*
D03*
X25933401D02*
D03*
X26898599Y20700999D02*
D03*
X27152600D02*
D03*
X26822400Y22631400D02*
D03*
X27076401D02*
D03*
X28067001Y19634200D02*
D03*
X26164001Y18745200D02*
D03*
X25144000D02*
D03*
Y19303999D02*
D03*
X26164001D02*
D03*
Y18186400D02*
D03*
X25144000D02*
D03*
Y19024600D02*
D03*
X26164001D02*
D03*
X25144000Y18465800D02*
D03*
X26164001D02*
D03*
Y19583400D02*
D03*
X25144000D02*
D03*
Y19862801D02*
D03*
X26164001D02*
D03*
Y20142200D02*
D03*
X25144000D02*
D03*
X26164001Y20421600D02*
D03*
X25144000D02*
D03*
Y20700999D02*
D03*
X26164001D02*
D03*
X23545799Y18491200D02*
D03*
X23291800D02*
D03*
X23037801D02*
D03*
X22783800D02*
D03*
X22529800D02*
D03*
X22275800D02*
D03*
X22021800D02*
D03*
X23825200Y15671800D02*
D03*
Y15925800D02*
D03*
Y16179800D02*
D03*
Y16433800D02*
D03*
Y16687801D02*
D03*
Y16941800D02*
D03*
Y17195799D02*
D03*
X25577800Y13714000D02*
D03*
Y14734000D02*
D03*
X25019000Y13714000D02*
D03*
Y14734000D02*
D03*
X25298399D02*
D03*
Y13714000D02*
D03*
X25857199Y14734000D02*
D03*
Y13714000D02*
D03*
X20195000Y21412199D02*
D03*
X19175000D02*
D03*
X20370799Y14734000D02*
D03*
Y13714000D02*
D03*
X19812000Y14734000D02*
D03*
Y13714000D02*
D03*
X20091400D02*
D03*
Y14734000D02*
D03*
X21539200Y17449800D02*
D03*
Y17195799D02*
D03*
Y16941800D02*
D03*
Y16687801D02*
D03*
Y16433800D02*
D03*
Y16179800D02*
D03*
Y15925800D02*
D03*
X20195000Y18338800D02*
D03*
X19175000D02*
D03*
Y20294600D02*
D03*
X20195000D02*
D03*
X19175000Y19177000D02*
D03*
X20195000D02*
D03*
X19175000Y18618201D02*
D03*
X20195000D02*
D03*
X19175000Y21132800D02*
D03*
X20195000D02*
D03*
Y18897600D02*
D03*
X19175000D02*
D03*
Y20574001D02*
D03*
X20195000D02*
D03*
X19175000Y19735800D02*
D03*
X20195000D02*
D03*
Y20015199D02*
D03*
X19175000D02*
D03*
X20195000Y19456400D02*
D03*
X19175000D02*
D03*
X20195000Y20853400D02*
D03*
X19175000D02*
D03*
X19532600Y13714000D02*
D03*
Y14734000D02*
D03*
X16564799Y17185800D02*
D03*
X17064799Y15935800D02*
D03*
X16564799D02*
D03*
X13770799Y13903799D02*
D03*
X14270799D02*
D03*
X13770799Y15153799D02*
D03*
X15167799D02*
D03*
X15667799Y13903799D02*
D03*
X15167799D02*
D03*
X16564799D02*
D03*
X17064799D02*
D03*
X16564799Y15153799D02*
D03*
X17961800D02*
D03*
X18461800Y13903799D02*
D03*
X17961800D02*
D03*
X13770799Y15935800D02*
D03*
X14270799D02*
D03*
X13770799Y17185800D02*
D03*
X15167799D02*
D03*
X15667799Y15935800D02*
D03*
X15167799D02*
D03*
X17961800Y17185800D02*
D03*
X18461800Y15935800D02*
D03*
X17961800D02*
D03*
X13770799Y17967799D02*
D03*
X14270799D02*
D03*
X13770799Y19217799D02*
D03*
X15167799D02*
D03*
X15667799Y17967799D02*
D03*
X15167799D02*
D03*
X16564799D02*
D03*
X17064799D02*
D03*
X16564799Y19217799D02*
D03*
X17961800D02*
D03*
X18461800Y17967799D02*
D03*
X17961800D02*
D03*
X13770799Y19999800D02*
D03*
X14270799D02*
D03*
X13770799Y21249800D02*
D03*
X15167799D02*
D03*
X15667799Y19999800D02*
D03*
X15167799D02*
D03*
X16564799D02*
D03*
X17064799D02*
D03*
X16564799Y21249800D02*
D03*
X17961800D02*
D03*
X18461800Y19999800D02*
D03*
X17961800D02*
D03*
X27885199Y15204601D02*
D03*
X27385199D02*
D03*
X27885199Y13954601D02*
D03*
X29612399D02*
D03*
X29112399Y15204601D02*
D03*
X29612399D02*
D03*
X27294400Y16428600D02*
D03*
X26644400D02*
D03*
Y15978600D02*
D03*
X27660400D02*
D03*
Y16428600D02*
D03*
X28310400D02*
D03*
X29326401D02*
D03*
X28676401D02*
D03*
Y15978600D02*
D03*
X29692401D02*
D03*
Y16428600D02*
D03*
X30342401D02*
D03*
X27294400Y17571600D02*
D03*
X26644400D02*
D03*
Y17121600D02*
D03*
X27660400D02*
D03*
Y17571600D02*
D03*
X28310400D02*
D03*
X29326401D02*
D03*
X28676401D02*
D03*
Y17121600D02*
D03*
X29692401D02*
D03*
Y17571600D02*
D03*
X30342401D02*
D03*
X27294400Y18714600D02*
D03*
X26644400D02*
D03*
Y18264600D02*
D03*
X27660400D02*
D03*
Y18714600D02*
D03*
X28310400D02*
D03*
X29326401D02*
D03*
X28676401D02*
D03*
Y18264600D02*
D03*
X29692401D02*
D03*
Y18714600D02*
D03*
X30342401D02*
D03*
X29103601Y22631400D02*
D03*
X28803601D02*
D03*
X30022800Y19964400D02*
D03*
Y19456400D02*
D03*
Y19710400D02*
D03*
X29489401D02*
D03*
Y19456400D02*
D03*
Y19964400D02*
D03*
X28067001Y20066000D02*
D03*
D19*
X23825200Y17449800D02*
D03*
X21539200Y15671800D02*
D03*
X30124399Y20700999D02*
D03*
X27824399Y22100999D02*
D03*
X30124399D02*
D03*
X27824399Y21831000D02*
D03*
Y20700999D02*
D03*
Y20971001D02*
D03*
X30022800Y20218401D02*
D03*
X29489401D02*
D03*
D20*
X30149799Y22783800D02*
D03*
X30149799Y13512804D02*
D03*
X13639799Y22758400D02*
D03*
Y13512801D02*
D03*
D21*
X19315199Y17424400D02*
D03*
X19380200Y17907001D02*
D03*
X21056599Y17449800D02*
D03*
X20980400Y17551401D02*
D03*
X21996400Y17729201D02*
D03*
X26568399Y14173199D02*
D03*
X26339801Y14478000D02*
D03*
X26416000Y14376401D02*
D03*
X15367000Y14859000D02*
D03*
X16789400Y14782800D02*
D03*
X18211800Y14706599D02*
D03*
X21259801Y16637000D02*
D03*
X21386800Y17017999D02*
D03*
X25120599Y18008600D02*
D03*
Y17653000D02*
D03*
X23164799Y16434077D02*
D03*
X26822400Y17322800D02*
D03*
X26492200D02*
D03*
Y14274800D02*
D03*
X26416000Y17246600D02*
D03*
X26339801Y17170399D02*
D03*
X25628601Y18539999D02*
D03*
X25552400Y18336800D02*
D03*
X25476199Y18059399D02*
D03*
X25400000Y17983200D02*
D03*
X24917400Y16332201D02*
D03*
X16789400Y15925800D02*
D03*
X18211800D02*
D03*
X15367000D02*
D03*
%TF.MD5,b191a0802bc60bab0357046693914e1b*%
M02*
