%TF.GenerationSoftware,Altium Limited,Altium Designer,21.4.1 (30)*%
G04 Layer_Color=255*
%FSLAX45Y45*%
%MOMM*%
%TF.SameCoordinates,DE4E361F-B2E7-428B-8DBD-4CB4FFEE74F0*%
%TF.FilePolarity,Positive*%
%TF.FileFunction,Pads,Bot*%
%TF.Part,Single*%
G01*
G75*
%TA.AperFunction,ComponentPad*%
%ADD13R,1.60000X2.00000*%
%ADD14O,1.60000X2.00000*%
%ADD15R,2.00000X1.60000*%
%ADD16O,2.00000X1.60000*%
%ADD17R,1.70000X1.70000*%
%ADD18C,1.70000*%
%ADD19R,1.70000X1.70000*%
%ADD20C,3.20000*%
D13*
X25374600Y21285201D02*
D03*
D14*
X25628601D02*
D03*
X25882599D02*
D03*
X26136600D02*
D03*
X26390601D02*
D03*
X26644601D02*
D03*
X26898599D02*
D03*
X27152600D02*
D03*
X25374600Y22047200D02*
D03*
X25628601D02*
D03*
X25882599D02*
D03*
X26136600D02*
D03*
X26390601D02*
D03*
X26644601D02*
D03*
X26898599D02*
D03*
X27152600D02*
D03*
D15*
X21920200Y17449800D02*
D03*
X26187399Y15036800D02*
D03*
X20700999D02*
D03*
D16*
X21920200Y17195799D02*
D03*
Y16941800D02*
D03*
Y16687801D02*
D03*
Y16433800D02*
D03*
Y16179800D02*
D03*
Y15925800D02*
D03*
Y15671800D02*
D03*
Y15417799D02*
D03*
Y15163800D02*
D03*
Y14909801D02*
D03*
Y14655800D02*
D03*
Y14401801D02*
D03*
Y14147800D02*
D03*
Y13893800D02*
D03*
X23444200Y17449800D02*
D03*
Y17195799D02*
D03*
Y16941800D02*
D03*
Y16687801D02*
D03*
Y16433800D02*
D03*
Y16179800D02*
D03*
Y15925800D02*
D03*
Y15671800D02*
D03*
Y15417799D02*
D03*
Y15163800D02*
D03*
Y14909801D02*
D03*
Y14655800D02*
D03*
Y14401801D02*
D03*
Y14147800D02*
D03*
Y13893800D02*
D03*
X26187399Y15290800D02*
D03*
Y15544800D02*
D03*
Y15798801D02*
D03*
Y16052800D02*
D03*
Y16306799D02*
D03*
Y16560800D02*
D03*
Y16814799D02*
D03*
Y17068800D02*
D03*
Y17322800D02*
D03*
Y17576801D02*
D03*
Y17830800D02*
D03*
X24663400Y15036800D02*
D03*
Y15290800D02*
D03*
Y15544800D02*
D03*
Y15798801D02*
D03*
Y16052800D02*
D03*
Y16306799D02*
D03*
Y16560800D02*
D03*
Y16814799D02*
D03*
Y17068800D02*
D03*
Y17322800D02*
D03*
Y17576801D02*
D03*
Y17830800D02*
D03*
X19177000D02*
D03*
Y17576801D02*
D03*
Y17322800D02*
D03*
Y17068800D02*
D03*
Y16814799D02*
D03*
Y16560800D02*
D03*
Y16306799D02*
D03*
Y16052800D02*
D03*
Y15798801D02*
D03*
Y15544800D02*
D03*
Y15290800D02*
D03*
Y15036800D02*
D03*
X20700999Y17830800D02*
D03*
Y17576801D02*
D03*
Y17322800D02*
D03*
Y17068800D02*
D03*
Y16814799D02*
D03*
Y16560800D02*
D03*
Y16306799D02*
D03*
Y16052800D02*
D03*
Y15798801D02*
D03*
Y15544800D02*
D03*
Y15290800D02*
D03*
D17*
X25425400Y22631400D02*
D03*
X26644601Y20700999D02*
D03*
X26568399Y22631400D02*
D03*
X27813000Y19634200D02*
D03*
X21767799Y18491200D02*
D03*
X17064799Y17185800D02*
D03*
X14270799Y15153799D02*
D03*
X15667799D02*
D03*
X17064799D02*
D03*
X18461800D02*
D03*
X14270799Y17185800D02*
D03*
X15667799D02*
D03*
X18461800D02*
D03*
X14270799Y19217799D02*
D03*
X15667799D02*
D03*
X17064799D02*
D03*
X18461800D02*
D03*
X14270799Y21249800D02*
D03*
X15667799D02*
D03*
X17064799D02*
D03*
X18461800D02*
D03*
X27385199Y13954601D02*
D03*
X29112399D02*
D03*
X27294400Y15978600D02*
D03*
X28310400D02*
D03*
X29326401D02*
D03*
X30342401D02*
D03*
X27294400Y17121600D02*
D03*
X28310400D02*
D03*
X29326401D02*
D03*
X30342401D02*
D03*
X27294400Y18264600D02*
D03*
X28310400D02*
D03*
X29326401D02*
D03*
X30342401D02*
D03*
X28503601Y22631400D02*
D03*
X27813000Y20066000D02*
D03*
D18*
X25679401Y22631400D02*
D03*
X25933401D02*
D03*
X26898599Y20700999D02*
D03*
X27152600D02*
D03*
X26822400Y22631400D02*
D03*
X27076401D02*
D03*
X28067001Y19634200D02*
D03*
X26164001Y18745200D02*
D03*
X25144000D02*
D03*
Y19303999D02*
D03*
X26164001D02*
D03*
Y18186400D02*
D03*
X25144000D02*
D03*
Y19024600D02*
D03*
X26164001D02*
D03*
X25144000Y18465800D02*
D03*
X26164001D02*
D03*
Y19583400D02*
D03*
X25144000D02*
D03*
Y19862801D02*
D03*
X26164001D02*
D03*
Y20142200D02*
D03*
X25144000D02*
D03*
X26164001Y20421600D02*
D03*
X25144000D02*
D03*
Y20700999D02*
D03*
X26164001D02*
D03*
X23545799Y18491200D02*
D03*
X23291800D02*
D03*
X23037801D02*
D03*
X22783800D02*
D03*
X22529800D02*
D03*
X22275800D02*
D03*
X22021800D02*
D03*
X23825200Y15671800D02*
D03*
Y15925800D02*
D03*
Y16179800D02*
D03*
Y16433800D02*
D03*
Y16687801D02*
D03*
Y16941800D02*
D03*
Y17195799D02*
D03*
X25577800Y13714000D02*
D03*
Y14734000D02*
D03*
X25019000Y13714000D02*
D03*
Y14734000D02*
D03*
X25298399D02*
D03*
Y13714000D02*
D03*
X25857199Y14734000D02*
D03*
Y13714000D02*
D03*
X20195000Y21412199D02*
D03*
X19175000D02*
D03*
X20370799Y14734000D02*
D03*
Y13714000D02*
D03*
X19812000Y14734000D02*
D03*
Y13714000D02*
D03*
X20091400D02*
D03*
Y14734000D02*
D03*
X21539200Y17449800D02*
D03*
Y17195799D02*
D03*
Y16941800D02*
D03*
Y16687801D02*
D03*
Y16433800D02*
D03*
Y16179800D02*
D03*
Y15925800D02*
D03*
X20195000Y18338800D02*
D03*
X19175000D02*
D03*
Y20294600D02*
D03*
X20195000D02*
D03*
X19175000Y19177000D02*
D03*
X20195000D02*
D03*
X19175000Y18618201D02*
D03*
X20195000D02*
D03*
X19175000Y21132800D02*
D03*
X20195000D02*
D03*
Y18897600D02*
D03*
X19175000D02*
D03*
Y20574001D02*
D03*
X20195000D02*
D03*
X19175000Y19735800D02*
D03*
X20195000D02*
D03*
Y20015199D02*
D03*
X19175000D02*
D03*
X20195000Y19456400D02*
D03*
X19175000D02*
D03*
X20195000Y20853400D02*
D03*
X19175000D02*
D03*
X19532600Y13714000D02*
D03*
Y14734000D02*
D03*
X16564799Y17185800D02*
D03*
X17064799Y15935800D02*
D03*
X16564799D02*
D03*
X13770799Y13903799D02*
D03*
X14270799D02*
D03*
X13770799Y15153799D02*
D03*
X15167799D02*
D03*
X15667799Y13903799D02*
D03*
X15167799D02*
D03*
X16564799D02*
D03*
X17064799D02*
D03*
X16564799Y15153799D02*
D03*
X17961800D02*
D03*
X18461800Y13903799D02*
D03*
X17961800D02*
D03*
X13770799Y15935800D02*
D03*
X14270799D02*
D03*
X13770799Y17185800D02*
D03*
X15167799D02*
D03*
X15667799Y15935800D02*
D03*
X15167799D02*
D03*
X17961800Y17185800D02*
D03*
X18461800Y15935800D02*
D03*
X17961800D02*
D03*
X13770799Y17967799D02*
D03*
X14270799D02*
D03*
X13770799Y19217799D02*
D03*
X15167799D02*
D03*
X15667799Y17967799D02*
D03*
X15167799D02*
D03*
X16564799D02*
D03*
X17064799D02*
D03*
X16564799Y19217799D02*
D03*
X17961800D02*
D03*
X18461800Y17967799D02*
D03*
X17961800D02*
D03*
X13770799Y19999800D02*
D03*
X14270799D02*
D03*
X13770799Y21249800D02*
D03*
X15167799D02*
D03*
X15667799Y19999800D02*
D03*
X15167799D02*
D03*
X16564799D02*
D03*
X17064799D02*
D03*
X16564799Y21249800D02*
D03*
X17961800D02*
D03*
X18461800Y19999800D02*
D03*
X17961800D02*
D03*
X27885199Y15204601D02*
D03*
X27385199D02*
D03*
X27885199Y13954601D02*
D03*
X29612399D02*
D03*
X29112399Y15204601D02*
D03*
X29612399D02*
D03*
X27294400Y16428600D02*
D03*
X26644400D02*
D03*
Y15978600D02*
D03*
X27660400D02*
D03*
Y16428600D02*
D03*
X28310400D02*
D03*
X29326401D02*
D03*
X28676401D02*
D03*
Y15978600D02*
D03*
X29692401D02*
D03*
Y16428600D02*
D03*
X30342401D02*
D03*
X27294400Y17571600D02*
D03*
X26644400D02*
D03*
Y17121600D02*
D03*
X27660400D02*
D03*
Y17571600D02*
D03*
X28310400D02*
D03*
X29326401D02*
D03*
X28676401D02*
D03*
Y17121600D02*
D03*
X29692401D02*
D03*
Y17571600D02*
D03*
X30342401D02*
D03*
X27294400Y18714600D02*
D03*
X26644400D02*
D03*
Y18264600D02*
D03*
X27660400D02*
D03*
Y18714600D02*
D03*
X28310400D02*
D03*
X29326401D02*
D03*
X28676401D02*
D03*
Y18264600D02*
D03*
X29692401D02*
D03*
Y18714600D02*
D03*
X30342401D02*
D03*
X29103601Y22631400D02*
D03*
X28803601D02*
D03*
X30022800Y19964400D02*
D03*
Y19456400D02*
D03*
Y19710400D02*
D03*
X29489401D02*
D03*
Y19456400D02*
D03*
Y19964400D02*
D03*
X28067001Y20066000D02*
D03*
D19*
X23825200Y17449800D02*
D03*
X21539200Y15671800D02*
D03*
X30124399Y20700999D02*
D03*
X27824399Y22100999D02*
D03*
X30124399D02*
D03*
X27824399Y21831000D02*
D03*
Y20700999D02*
D03*
Y20971001D02*
D03*
X30022800Y20218401D02*
D03*
X29489401D02*
D03*
D20*
X30149799Y22783800D02*
D03*
X30149799Y13512804D02*
D03*
X13639799Y22758400D02*
D03*
Y13512801D02*
D03*
%TF.MD5,3e1cdfe3fb4695fed44fab96d79a6463*%
M02*
