M48
;Layer_Color=9474304
;FILE_FORMAT=4:4
METRIC,LZ
;TYPE=PLATED
T1F00S00C0.3000
T2F00S00C1.0000
T3F00S00C1.1000
%
T01
X0265684Y0141732
X0264922Y0142748
X026416Y0143764
X0263398Y014478
X0182118Y0147066
X0167894Y0147828
X015367Y014859
Y0159258
X0167894
X0182118
X0193152Y0174244
X0193802Y017907
X0209804Y0175514
X0210566Y0174498
X0213868Y017018
X0212598Y016637
X0219964Y0177292
X0231648Y01643408
X0249174Y0163322
X0251206Y017653
Y0180086
X0254Y0179832
X0254762Y0180594
X0255524Y0183368
X0256286Y01854
X0264922Y0173228
X026416Y0172466
X0263398Y0171704
X0268224Y0173228
T02
X025019Y013714
X0252984
X0255778
X0258572
Y014734
X0255778
X0252984
X025019
X0203708
X0200914
Y013714
X0203708
X019812
X0195326
Y014734
X019812
X019175Y0183388
Y0186182
Y0188976
Y019177
Y0194564
Y0197358
X020195
Y0194564
Y019177
Y0188976
Y0186182
Y0183388
X025144Y0184658
Y0187452
Y0190246
Y019304
Y0195834
X026164
Y019304
Y0190246
Y0187452
Y0184658
Y0181864
X025144
Y0198628
Y0201422
Y0204216
Y020701
X026164
Y0204216
Y0201422
Y0198628
X020195Y0200152
Y0202946
Y020574
Y0208534
Y0211328
Y0214122
X019175
Y0211328
Y0208534
Y020574
Y0202946
Y0200152
T03
X0278852Y0139546
X0291124
X0296124
Y0152046
X0291124
X0278852
X0273852
Y0139546
X0261874Y0150368
Y0152908
Y0155448
Y0157988
X0246634
Y0155448
Y0152908
Y0150368
X0238252Y0156718
X0234442
Y0154178
Y0151638
Y0149098
Y0146558
Y0144018
Y0141478
Y0138938
X0219202
Y0141478
Y0144018
Y0146558
Y0149098
Y0151638
Y0154178
Y0156718
X0215392
X020701Y0157988
Y0155448
Y0152908
Y0150368
X019177
Y0152908
Y0155448
Y0157988
X0184618Y0151538
X0179618
X0170648
X0165648
Y0139038
X0170648
X0179618
X0184618
X0156678
X0151678
X0142708
X0137708
Y0151538
X0142708
X0151678
X0156678
Y0159358
X0151678
X0142708
X0137708
Y0171858
X0142708
Y0179678
X0137708
Y0192178
X0142708
X0151678
X0156678
Y0179678
X0151678
Y0171858
X0156678
X0165648
X0170648
Y0179678
X0165648
Y0192178
X0170648
X0179618
X0184618
Y0179678
X0179618
Y0171858
X0184618
X019177Y0170688
Y0173228
Y0175768
Y0178308
Y0168148
Y0165608
Y0163068
Y0160528
X0184618Y0159358
X0179618
X0170648
X0165648
X020701Y0160528
Y0163068
Y0165608
Y0168148
Y0170688
Y0173228
Y0175768
Y0178308
X0215392Y0174498
Y0171958
Y0169418
Y0166878
Y0164338
Y0161798
Y0159258
X0219202
Y0161798
Y0164338
Y0166878
Y0169418
Y0171958
Y0174498
X0220218Y0184912
X0222758
X0225298
X0227838
X0230378
X0232918
X0235458
X0234442Y0174498
Y0171958
Y0169418
Y0166878
Y0164338
Y0161798
Y0159258
X0217678Y0184912
X0238252Y0174498
Y0171958
Y0169418
Y0166878
Y0164338
Y0161798
Y0159258
X0246634Y0160528
Y0163068
Y0165608
Y0168148
Y0170688
Y0173228
Y0175768
Y0178308
X0261874
Y0175768
Y0173228
Y0170688
Y0168148
Y0165608
Y0163068
Y0160528
X0266444Y0159786
Y0164286
X0272944
X0276604
Y0159786
X0272944
Y0171216
X0276604
Y0175716
X0272944
X0266444
Y0171216
Y0182646
Y0187146
X0272944
X0276604
Y0182646
X0272944
X0283104
X0286764
Y0187146
X0283104
X0293264
X0296924
Y0182646
X0293264
Y0175716
X0296924
Y0171216
X0293264
X0286764
X0283104
Y0175716
X0286764
Y0164286
X0283104
Y0159786
X0286764
X0293264
X0296924
Y0164286
X0293264
X0303424
Y0159786
Y0171216
Y0175716
Y0182646
Y0187146
X0300228Y0194564
Y0197104
X0294894
Y0194564
X028067Y0196342
X027813
Y020066
X028067
X0278244Y020701
Y020971
Y021831
Y022101
X0285036Y0226314
X0288036
X0291036
X0301244Y022101
Y020701
X0300228Y0202184
Y0199644
X0294894
Y0202184
X0271526Y020701
X0268986
X0266446
Y0212852
X0263906
X0261366
X0258826
X0256286
X0253746
Y0220472
X0256286
X0258826
X0261366
X0263906
X0266446
X0268986
X0271526
X0270764Y0226314
X0268224
X0265684
X0259334
X0256794
X0254254
X0268986Y0212852
X0271526
X0184618Y0212498
X0179618
X0170648
X0165648
Y0199998
X0170648
X0179618
X0184618
X0156678
X0151678
X0142708
X0137708
Y0212498
X0142708
X0151678
X0156678
M30
